<svg width="70" height="70" viewBox="0 0 70 70" fill="none" xmlns="http://www.w3.org/2000/svg">
<g clip-path="url(#clip0_18_35147)">
<path d="M35 55.6076C46.3813 55.6076 55.6077 46.3812 55.6077 34.9998C55.6077 23.6185 46.3813 14.3921 35 14.3921C23.6186 14.3921 14.3922 23.6185 14.3922 34.9998C14.3922 46.3812 23.6186 55.6076 35 55.6076Z" fill="white"/>
<path d="M17.0777 24.6525C17.8261 23.3555 18.7126 22.1432 19.7218 21.0368C17.3113 22.0486 14.4251 21.4652 12.6114 19.3883C10.4178 16.8763 6.65441 16.5467 4.0627 18.585C7.2662 18.6919 9.90841 21.2359 10.0763 24.4956C10.222 27.3252 12.2325 29.6153 14.8558 30.2406C15.3204 28.2796 16.0689 26.3971 17.0777 24.6525ZM52.9223 45.3475C52.1739 46.6445 51.2874 47.8568 50.2782 48.9632C52.6887 47.9514 55.5749 48.5348 57.3886 50.6117C59.5822 53.1237 63.3456 53.4533 65.9373 51.415C62.7338 51.3081 60.0916 48.7641 59.9237 45.5044C59.778 42.6748 57.7674 40.3847 55.1442 39.7594C54.6796 41.7204 53.9311 43.6029 52.9223 45.3475ZM24.6525 52.9223C23.3555 52.1739 22.1432 51.2874 21.0368 50.2782C22.0486 52.6887 21.4652 55.5749 19.3883 57.3886C16.8763 59.5822 16.5467 63.3456 18.585 65.9373C18.6919 62.7338 21.2359 60.0916 24.4956 59.9237C27.3252 59.778 29.6153 57.7674 30.2406 55.1442C28.2796 54.6796 26.3971 53.9311 24.6525 52.9223ZM45.3475 17.0777C46.6445 17.8261 47.8568 18.7126 48.9632 19.7218C47.9514 17.3113 48.5348 14.4251 50.6117 12.6114C53.1237 10.4178 53.4533 6.65441 51.415 4.0627C51.3081 7.2662 48.7641 9.90841 45.5044 10.0763C42.6748 10.222 40.3847 12.2325 39.7594 14.8558C41.7204 15.3204 43.6029 16.0689 45.3475 17.0777ZM35 14.3052C36.529 14.3052 38.0187 14.4725 39.4533 14.7871C37.3719 13.2054 36.434 10.4142 37.3258 7.805C38.4044 4.64917 36.8082 1.22543 33.7471 0C35.2562 2.82774 34.3741 6.38807 31.6352 8.16325C29.2576 9.70425 28.2796 12.5905 29.0496 15.1749C30.9801 14.5968 32.9848 14.3038 35 14.3052ZM35 55.6948C33.5026 55.6952 32.0095 55.5336 30.5467 55.2129C32.6281 56.7946 33.566 59.5858 32.6742 62.195C31.5956 65.3508 33.1918 68.7746 36.2529 70C34.7438 67.1723 35.6259 63.6119 38.3648 61.8367C40.7424 60.2957 41.7204 57.4095 40.9504 54.8251C39.0199 55.4032 37.0152 55.6962 35 55.6948ZM14.3052 35C14.3052 33.471 14.4725 31.9813 14.7871 30.5467C13.2054 32.6281 10.4142 33.566 7.805 32.6742C4.64917 31.5955 1.22543 33.1917 0 36.2527C2.82774 34.7436 6.38807 35.6257 8.16325 38.3647C9.70425 40.7423 12.5905 41.7203 15.1749 40.9503C14.5968 39.0198 14.3038 37.0152 14.3052 35ZM55.6948 35C55.6948 36.529 55.5275 38.0187 55.2129 39.4533C56.7946 37.3719 59.5858 36.434 62.195 37.3258C65.3508 38.4044 68.7746 36.8082 70 33.7471C67.1723 35.2562 63.6119 34.3741 61.8367 31.6352C60.2957 29.2576 57.4095 28.2796 54.8251 29.0496C55.4032 30.9801 55.6962 32.9848 55.6948 35ZM24.6525 17.0777C25.9492 16.3287 27.3231 15.7221 28.7502 15.2684C26.1568 14.9393 23.949 12.991 23.4167 10.2854C22.7729 7.01309 19.6787 4.84608 16.415 5.31545C19.1358 7.00968 20.152 10.5341 18.6677 13.441C17.3791 15.9644 17.9752 18.9529 19.9343 20.8061C21.3172 19.3402 22.9067 18.0842 24.6525 17.0777ZM45.3475 52.9223C44.0508 53.6713 42.6769 54.2779 41.2498 54.7316C43.8432 55.0607 46.051 57.009 46.5833 59.7146C47.2271 62.9869 50.3213 65.1539 53.585 64.6846C50.8643 62.9903 49.848 59.4659 51.3323 56.559C52.6209 54.0356 52.0248 51.0471 50.0657 49.1939C48.6828 50.6598 47.0933 51.9158 45.3475 52.9223ZM17.0777 45.3475C16.3287 44.0508 15.7221 42.6769 15.2684 41.2498C14.9393 43.8432 12.991 46.051 10.2854 46.5833C7.01309 47.2271 4.84608 50.3213 5.31545 53.585C7.00968 50.8643 10.5341 49.848 13.441 51.3323C15.9644 52.6209 18.9529 52.0248 20.8061 50.0657C19.3402 48.6828 18.0842 47.0933 17.0777 45.3475ZM52.9223 24.6525C53.6713 25.9492 54.2779 27.3231 54.7316 28.7502C55.0607 26.1568 57.009 23.949 59.7146 23.4167C62.9869 22.7729 65.1539 19.6787 64.6846 16.415C62.9903 19.1358 59.4659 20.152 56.559 18.6677C54.0356 17.3791 51.0471 17.9752 49.1939 19.9343C50.6598 21.3172 51.9158 22.9067 52.9223 24.6525Z" fill="#FFF3D6"/>
<path d="M19.7218 21.0368C17.3113 22.0486 14.4251 21.4652 12.6114 19.3883C10.4178 16.8763 6.65441 16.5467 4.0627 18.585C7.2662 18.6919 9.90841 21.2359 10.0763 24.4956C10.222 27.3252 12.2325 29.6153 14.8558 30.2406M50.2782 48.9632C52.6887 47.9514 55.5749 48.5348 57.3886 50.6117C59.5822 53.1237 63.3456 53.4533 65.9373 51.415C62.7338 51.3081 60.0916 48.7641 59.9237 45.5044C59.778 42.6748 57.7674 40.3847 55.1442 39.7594M21.0368 50.2782C22.0486 52.6887 21.4652 55.5749 19.3883 57.3886C16.8763 59.5822 16.5467 63.3456 18.585 65.9373C18.6919 62.7338 21.2359 60.0916 24.4956 59.9237C27.3252 59.778 29.6153 57.7674 30.2406 55.1442M48.9632 19.7218C47.9514 17.3113 48.5348 14.4251 50.6117 12.6114C53.1237 10.4178 53.4533 6.65441 51.415 4.0627C51.3081 7.2662 48.7641 9.90841 45.5044 10.0763C42.6748 10.222 40.3847 12.2325 39.7594 14.8558M39.4533 14.7871C37.3719 13.2054 36.434 10.4142 37.3258 7.805C38.4044 4.64917 36.8082 1.22543 33.7471 0C35.2562 2.82774 34.3741 6.38807 31.6352 8.16325C29.2576 9.70425 28.2796 12.5905 29.0496 15.1749M30.5467 55.2129C32.6281 56.7946 33.566 59.5858 32.6742 62.195C31.5956 65.3508 33.1918 68.7746 36.2529 70C34.7438 67.1723 35.6259 63.6119 38.3648 61.8367C40.7424 60.2957 41.7204 57.4095 40.9504 54.8251M14.7871 30.5467C13.2054 32.6281 10.4142 33.566 7.805 32.6742C4.64917 31.5955 1.22543 33.1917 0 36.2527C2.82774 34.7436 6.38807 35.6257 8.16325 38.3647C9.70425 40.7423 12.5905 41.7203 15.1749 40.9503M55.2129 39.4533C56.7946 37.3719 59.5858 36.434 62.195 37.3258C65.3508 38.4044 68.7746 36.8082 70 33.7471C67.1723 35.2562 63.6119 34.3741 61.8367 31.6352C60.2957 29.2576 57.4095 28.2796 54.8251 29.0496M28.7502 15.2684C26.1568 14.9393 23.949 12.991 23.4167 10.2854C22.7729 7.01309 19.6787 4.84608 16.415 5.31545C19.1358 7.00968 20.152 10.5341 18.6677 13.441C17.3791 15.9644 17.9752 18.9529 19.9343 20.8061M41.2498 54.7316C43.8432 55.0607 46.051 57.009 46.5833 59.7146C47.2271 62.9869 50.3213 65.1539 53.585 64.6846C50.8643 62.9903 49.848 59.4659 51.3323 56.559C52.6209 54.0356 52.0248 51.0471 50.0657 49.1939M15.2684 41.2498C14.9393 43.8432 12.991 46.051 10.2854 46.5833C7.01309 47.2271 4.84608 50.3213 5.31545 53.585C7.00968 50.8643 10.5341 49.848 13.441 51.3323C15.9644 52.6209 18.9529 52.0248 20.8061 50.0657M54.7316 28.7502C55.0607 26.1568 57.009 23.949 59.7146 23.4167C62.9869 22.7729 65.1539 19.6787 64.6846 16.415C62.9903 19.1358 59.4659 20.152 56.559 18.6677C54.0356 17.3791 51.0471 17.9752 49.1939 19.9343" fill="#FFE600"/>
<path d="M19.7218 21.0368C17.3113 22.0486 14.4251 21.4652 12.6114 19.3883C10.4178 16.8763 6.65441 16.5467 4.0627 18.585C7.2662 18.6919 9.90841 21.2359 10.0763 24.4956C10.222 27.3252 12.2325 29.6153 14.8558 30.2406M50.2782 48.9631C52.6887 47.9514 55.5749 48.5348 57.3886 50.6117C59.5822 53.1237 63.3456 53.4533 65.9373 51.415C62.7338 51.3081 60.0916 48.7641 59.9237 45.5044C59.778 42.6748 57.7674 40.3847 55.1442 39.7594M21.0368 50.2782C22.0486 52.6887 21.4652 55.5749 19.3883 57.3886C16.8763 59.5822 16.5467 63.3456 18.585 65.9373C18.6919 62.7338 21.2359 60.0916 24.4956 59.9237C27.3252 59.778 29.6153 57.7674 30.2406 55.1442M48.9631 19.7218C47.9514 17.3113 48.5348 14.4251 50.6117 12.6114C53.1237 10.4178 53.4533 6.65441 51.415 4.0627C51.3081 7.2662 48.7641 9.90841 45.5044 10.0763C42.6748 10.222 40.3847 12.2325 39.7594 14.8558M39.4532 14.7871C37.3719 13.2054 36.434 10.4142 37.3258 7.805C38.4044 4.64917 36.8082 1.22543 33.7471 0C35.2562 2.82774 34.3741 6.38807 31.6352 8.16325C29.2576 9.70425 28.2796 12.5905 29.0496 15.1749M30.5467 55.2129C32.6281 56.7946 33.566 59.5858 32.6742 62.195C31.5956 65.3508 33.1918 68.7746 36.2529 70C34.7438 67.1723 35.6259 63.6119 38.3648 61.8367C40.7424 60.2958 41.7204 57.4095 40.9504 54.8251M14.7871 30.5467C13.2054 32.6281 10.4142 33.566 7.805 32.6742C4.64917 31.5955 1.22543 33.1917 0 36.2527C2.82774 34.7436 6.38807 35.6257 8.16325 38.3647C9.70425 40.7423 12.5905 41.7203 15.1749 40.9503M55.2129 39.4532C56.7946 37.3719 59.5858 36.434 62.195 37.3258C65.3508 38.4044 68.7746 36.8082 70 33.7471C67.1723 35.2562 63.6119 34.3741 61.8367 31.6352C60.2958 29.2576 57.4095 28.2796 54.8251 29.0496M28.7502 15.2684C26.1568 14.9393 23.949 12.991 23.4167 10.2854C22.7729 7.01309 19.6787 4.84608 16.415 5.31545C19.1358 7.00967 20.152 10.5341 18.6677 13.441C17.3791 15.9644 17.9752 18.9529 19.9343 20.8061M41.2498 54.7316C43.8432 55.0607 46.051 57.009 46.5833 59.7146C47.2271 62.9869 50.3213 65.1539 53.585 64.6846C50.8642 62.9903 49.848 59.4659 51.3323 56.559C52.6209 54.0356 52.0248 51.0471 50.0657 49.1939M15.2684 41.2498C14.9393 43.8432 12.991 46.051 10.2854 46.5833C7.01309 47.2271 4.84608 50.3213 5.31545 53.585C7.00967 50.8642 10.5341 49.848 13.441 51.3323C15.9644 52.6209 18.9529 52.0248 20.8061 50.0657M54.7316 28.7502C55.0607 26.1568 57.009 23.949 59.7146 23.4167C62.9869 22.7729 65.1539 19.6787 64.6846 16.415C62.9903 19.1358 59.4659 20.152 56.559 18.6677C54.0356 17.3791 51.0471 17.9752 49.1939 19.9343" stroke="#D70404" stroke-miterlimit="10" stroke-linecap="round" stroke-linejoin="round"/>
<path d="M35 55.6076C46.3813 55.6076 55.6077 46.3812 55.6077 34.9998C55.6077 23.6185 46.3813 14.3921 35 14.3921C23.6186 14.3921 14.3922 23.6185 14.3922 34.9998C14.3922 46.3812 23.6186 55.6076 35 55.6076Z" stroke="#D70404" stroke-miterlimit="10" stroke-linecap="round" stroke-linejoin="round"/>
<path fill-rule="evenodd" clip-rule="evenodd" d="M32.1435 37.9541C31.406 37.2166 30.9497 36.1976 30.9497 35.0722C30.9497 33.9468 31.4059 32.9279 32.1435 32.1904C32.881 31.4528 33.9 30.9966 35.0253 30.9966C36.1507 30.9966 37.1697 31.4528 37.9072 32.1904C38.6447 32.9279 39.101 33.9468 39.101 35.0722C39.101 36.1976 38.6447 37.2165 37.9072 37.9541C37.1697 38.6916 36.1507 39.1478 35.0253 39.1478C33.9 39.1478 32.881 38.6916 32.1435 37.9541ZM41.161 35.6342C40.8506 35.6342 40.599 35.3826 40.599 35.0722C40.599 34.7619 40.8506 34.5103 41.161 34.5103H43.3614C43.6718 34.5103 43.9234 34.7619 43.9234 35.0722C43.9234 35.3826 43.6718 35.6342 43.3614 35.6342H41.161ZM45.6566 35.0722C45.6566 34.7619 45.9082 34.5103 46.2185 34.5103H48.419C48.7293 34.5103 48.9809 34.7619 48.9809 35.0722C48.9809 35.3826 48.7293 35.6342 48.419 35.6342H46.2185C45.9082 35.6342 45.6566 35.3826 45.6566 35.0722ZM55.5365 38.7785V31.368H48.3543V31.3658L41.9552 31.3659C41.7506 31.3841 41.5433 31.289 41.4276 31.1026L41.4284 31.1021C41.1234 30.6113 40.7615 30.1563 40.3513 29.7462C39.9491 29.344 39.5037 28.988 39.0236 28.6868C38.8484 28.5916 38.7295 28.406 38.7295 28.1927V14.561H31.3211V22.0322H31.319L31.319 28.1424C31.3372 28.347 31.2422 28.5542 31.0557 28.67L31.0552 28.6692C30.5644 28.9741 30.1095 29.3361 29.6994 29.7462C29.2971 30.1485 28.9411 30.5939 28.6399 31.074C28.5447 31.2492 28.3591 31.368 28.1458 31.368H14.5142V38.7764H21.6435V38.7786L28.0955 38.7786C28.3001 38.7604 28.5073 38.8554 28.6231 39.0418L28.6223 39.0423C28.9273 39.5332 29.2892 39.9881 29.6994 40.3982C30.1016 40.8005 30.547 41.1564 31.0271 41.4577C31.2023 41.5528 31.3212 41.7385 31.3212 41.9518V55.5834H38.7317L38.7317 48.1975H38.7295V41.9592C38.7272 41.7689 38.8215 41.5821 38.9949 41.4744L38.9954 41.4752C39.4863 41.1703 39.9412 40.8083 40.3513 40.3982C40.7536 39.9959 41.1095 39.5505 41.4108 39.0704C41.5059 38.8953 41.6915 38.7764 41.9049 38.7764H48.3416V38.7786L55.5365 38.7785ZM26.1273 35.0722C26.1273 34.7619 26.3789 34.5103 26.6892 34.5103H28.8897C29.2001 34.5103 29.4517 34.7619 29.4517 35.0722C29.4517 35.3826 29.2001 35.6342 28.8897 35.6342H26.6892C26.3789 35.6342 26.1273 35.3826 26.1273 35.0722ZM23.8322 35.6342H21.6317C21.3213 35.6342 21.0697 35.3826 21.0697 35.0722C21.0697 34.7619 21.3213 34.5103 21.6317 34.5103H23.8322C24.1425 34.5103 24.3941 34.7619 24.3941 35.0722C24.3941 35.3826 24.1425 35.6342 23.8322 35.6342ZM53.4766 35.6342H51.2761C50.9657 35.6342 50.7141 35.3826 50.7141 35.0722C50.7141 34.7619 50.9657 34.5103 51.2761 34.5103H53.4766C53.7869 34.5103 54.0385 34.7619 54.0385 35.0722C54.0385 35.3826 53.7869 35.6342 53.4766 35.6342ZM19.3366 35.0722C19.3366 35.3826 19.085 35.6342 18.7746 35.6342H16.5741C16.2638 35.6342 16.0122 35.3826 16.0122 35.0722C16.0122 34.7619 16.2638 34.5103 16.5741 34.5103H18.7746C19.085 34.5103 19.3366 34.7619 19.3366 35.0722ZM35.0253 43.9703C34.715 43.9703 34.4634 43.7187 34.4634 43.4083V41.2078C34.4634 40.8975 34.715 40.6459 35.0253 40.6459C35.3357 40.6459 35.5873 40.8975 35.5873 41.2078V43.4083C35.5873 43.7187 35.3357 43.9703 35.0253 43.9703ZM35.0253 49.0278C34.715 49.0278 34.4634 48.7762 34.4634 48.4659V46.2654C34.4634 45.955 34.715 45.7034 35.0253 45.7034C35.3357 45.7034 35.5873 45.9551 35.5873 46.2654V48.4659C35.5873 48.7762 35.3357 49.0278 35.0253 49.0278ZM35.0253 54.0854C34.715 54.0854 34.4634 53.8338 34.4634 53.5235V51.323C34.4634 51.0126 34.715 50.761 35.0253 50.761C35.3357 50.761 35.5873 51.0126 35.5873 51.323V53.5235C35.5873 53.8338 35.3357 54.0854 35.0253 54.0854ZM34.4634 28.9366V26.7361C34.4634 26.4258 34.715 26.1742 35.0253 26.1742C35.3357 26.1742 35.5873 26.4258 35.5873 26.7361V28.9366C35.5873 29.247 35.3357 29.4986 35.0253 29.4986C34.715 29.4986 34.4634 29.247 34.4634 28.9366ZM34.4634 23.879V21.6786C34.4634 21.3682 34.715 21.1166 35.0253 21.1166C35.3357 21.1166 35.5873 21.3682 35.5873 21.6786V23.879C35.5873 24.1894 35.3357 24.441 35.0253 24.441C34.715 24.441 34.4634 24.1894 34.4634 23.879ZM34.4634 18.8215V16.621C34.4634 16.3107 34.715 16.0591 35.0253 16.0591C35.3357 16.0591 35.5873 16.3107 35.5873 16.621V18.8215C35.5873 19.1318 35.3357 19.3834 35.0253 19.3834C34.715 19.3834 34.4634 19.1318 34.4634 18.8215Z" fill="#D70404"/>
<path fill-rule="evenodd" clip-rule="evenodd" d="M37.1125 37.1594C37.6466 36.6253 37.977 35.8873 37.977 35.0722C37.977 34.2571 37.6466 33.5191 37.1125 32.985C36.5784 32.4509 35.8405 32.1205 35.0253 32.1205C34.2102 32.1205 33.4722 32.4509 32.9381 32.985C32.404 33.5191 32.0736 34.2571 32.0736 35.0722C32.0736 35.8873 32.404 36.6253 32.9381 37.1594C33.4722 37.6935 34.2102 38.0239 35.0253 38.0239C35.8405 38.0239 36.5784 37.6935 37.1125 37.1594Z" fill="#FF5722"/>
</g>
<defs>
<clipPath id="clip0_18_35147">
<rect width="70" height="70" fill="white"/>
</clipPath>
</defs>
</svg>
